
		<svg xmlns="http://www.w3.org/2000/svg" xmlns:xlink="http://www.w3.org/1999/xlink" version="1.1" width="3141.8439716312055" height="730.4964539007092">
			<rect fill="#6e36ad" width="3141.8439716312055" height="730.4964539007092"/>
			<g transform="scale(7.092198581560283) translate(10, 10)">
				<defs id="SvgjsDefs1170"/><g id="main_text" rel="mainfill" name="main_text" feature="main_text" xmlns:name="mainText_mainfill" groupName="main_text" fill="#fff" transform="translate(113.23109109184243, -3.894631881746374) scale(2.479544782037383)"><path d="M6.3 19.72 l-1.58 0 l0 4.28 q-0.64 0.12 -1.6 0.12 q-0.98 0 -1.6 -0.12 l0 -13.56 l0.14 -0.14 q1.74 -0.04 2.89 -0.06 t1.75 -0.02 q1.1 0 2.01 0.3 t1.55 0.9 t0.99 1.49 t0.35 2.05 t-0.36 2.05 t-1 1.49 t-1.55 0.91 t-1.99 0.31 z M4.72 12.66 l0 4.66 q0.56 -0.02 0.89 -0.03 t0.43 -0.01 q0.54 0 0.9 -0.19 t0.58 -0.5 t0.32 -0.73 t0.1 -0.88 q0 -0.44 -0.1 -0.86 t-0.31 -0.74 t-0.55 -0.51 t-0.8 -0.19 l-0.82 0 t-0.64 -0.02 z M16.259999999999998 20.28 q0.54 1.56 2.18 1.56 q0.82 0 1.33 -0.41 t0.8 -1.04 t0.39 -1.41 t0.1 -1.54 q0 -0.7 -0.05 -1.56 t-0.29 -1.61 t-0.76 -1.26 t-1.52 -0.51 q-0.96 0 -1.47 0.49 t-0.76 1.21 t-0.31 1.53 t-0.06 1.43 q0 0.92 0.09 1.64 t0.33 1.48 z M14.639999999999999 23.04 q-2.14 -1.78 -2.14 -5.86 q0 -1.76 0.41 -3.09 t1.18 -2.23 t1.87 -1.36 t2.48 -0.46 t2.49 0.46 t1.88 1.37 t1.18 2.24 t0.41 3.07 t-0.41 3.07 t-1.18 2.23 t-1.88 1.36 t-2.49 0.46 q-2.28 0 -3.8 -1.26 z M37.4 23.22 q-0.68 0.96 -2.12 0.96 q-0.82 0 -1.23 -0.42 t-0.71 -1.42 l-0.76 -2.34 q-0.3 -0.94 -0.72 -1.34 t-1.14 -0.4 q-0.24 0 -0.88 0.04 l0 5.7 q-0.62 0.12 -1.6 0.12 t-1.6 -0.12 l0 -13.66 q0.62 -0.12 1.6 -0.12 t1.6 0.12 l0 5.28 l0.52 -0.02 q0.36 0 0.52 -0.13 t0.38 -0.55 l1.9 -3.58 q0.3 -0.62 0.64 -0.87 t1.06 -0.25 q0.8 0 1.86 0.1 l0.18 0.22 l-2.44 4.6 q-0.46 0.92 -1.12 1.46 q0.94 0.2 1.41 0.76 t0.79 1.5 l0.82 2.48 q0.16 0.46 0.24 0.68 t0.4 0.74 q0.14 0.2 0.4 0.46 z M42.2 19.96 l-0.02 1.44 l0 0.02 q0.92 -0.04 1.48 -0.04 l4.64 0 q0 0.74 -0.06 1.14 q-0.24 1.54 -2.04 1.54 l-5.32 0 q-0.86 0 -1.35 -0.5 t-0.49 -1.36 l0 -11.72 l0.14 -0.14 l8.62 0 q0.12 0.58 0.12 1.26 t-0.28 1.42 l-5.46 0 l0.02 1.44 l0 1.4 q0.52 -0.02 1.36 -0.02 l3.06 0 q0.18 0.56 0.18 1.28 t-0.18 1.32 l-4.42 0 l0 1.52 z M60.32 14.56 q0 0.66 -0.2 1.25 t-0.53 1.06 t-0.78 0.82 t-0.93 0.53 q1.04 0.38 1.54 1.84 l0.6 1.7 q0.34 1 1 1.48 q-0.3 0.4 -0.9 0.67 t-1.32 0.27 t-1.12 -0.41 t-0.74 -1.43 l-0.72 -2.1 q-0.22 -0.6 -0.59 -0.92 t-1.11 -0.32 l-0.82 0 l0 5 q-0.64 0.12 -1.6 0.12 t-1.58 -0.12 l0 -13.56 l0.14 -0.14 q1.74 -0.04 2.93 -0.06 t1.87 -0.02 q1.1 0 2 0.27 t1.53 0.81 t0.98 1.36 t0.35 1.9 z M53.7 12.62 l0 3.92 q0.9 0 1.54 -0.03 t1.03 -0.24 t0.59 -0.59 t0.2 -1.1 q0 -1.94 -1.88 -1.94 l-0.83 0 t-0.65 -0.02 z  M72.04 21.32 l2.62 -10.98 q0.48 -0.12 1.24 -0.12 q1.04 0 1.64 0.22 l0.12 0.16 l-3.74 13.4 q-1.14 0.12 -2.29 0.12 t-1.66 -0.29 t-0.77 -1.15 l-3.32 -12.06 q1.08 -0.46 1.78 -0.46 q0.84 0 1.24 0.38 t0.62 1.2 l1.54 5.7 q0.36 1.34 0.76 3.64 q0.04 0.24 0.22 0.24 z M82.66000000000001 21.14 q-0.54 0 -0.8 -0.02 l-0.86 2.9 q-0.48 0.12 -1.34 0.12 q-0.96 0 -1.56 -0.22 l-0.1 -0.16 l4.4 -13.42 q0.78 -0.12 1.82 -0.12 q1.18 0 1.88 0.14 l4.32 13.44 q-0.7 0.38 -1.58 0.38 q-1.04 0 -1.46 -0.36 t-0.72 -1.38 l-0.38 -1.32 q-0.26 0.02 -0.78 0.02 l-2.84 0 z M82.60000000000001 18.62 l0.8 -0.02 l1.46 0 q0.1 0 0.35 0.01 t0.37 0.01 l-0.34 -1.24 q-0.48 -1.68 -1.1 -4.12 l-0.12 0 q-0.16 0.86 -0.96 3.82 z M102.72000000000001 10.34 l0 8.62 q0 2.56 -1.4 3.95 t-4 1.39 t-4.01 -1.39 t-1.41 -3.95 l0 -8.62 l0.14 -0.14 l1.18 0 q1.9 0 1.9 2.04 l0 6.76 q0 1.4 0.5 2.08 t1.7 0.68 t1.7 -0.68 t0.5 -2.08 l0 -8.66 q0.62 -0.12 1.6 -0.12 q0.96 0 1.6 0.12 z M110.62000000000002 21.3 l3.46 0 q0 0.8 -0.1 1.37 t-0.64 0.98 t-1.42 0.41 l-4.52 0 q-0.86 0 -1.36 -0.5 t-0.5 -1.36 l0 -11.86 l0.14 -0.14 l1.18 0 q1.88 0 1.88 2.04 l0 9.14 q0.88 -0.08 1.88 -0.08 z M121.18000000000002 12.98 l0.02 1.48 l0 9.54 q-0.68 0.12 -1.62 0.12 t-1.58 -0.12 l0 -11.02 l-1.28 0.02 l-2.06 0 q-0.12 -0.58 -0.12 -1.33 t0.12 -1.33 l9.9 0 q0.16 0.52 0.16 1.26 t-0.4 1.07 t-1.28 0.33 l-0.58 0 l-1.26 -0.02 l-0.02 0 z"/></g><g id="slogan_text" rel="mainfill" name="slogan_text" feature="slogan_text" xmlns:name="sloganText_mainfill" groupName="slogan_text" fill="#fff" transform="translate(116.4997984065072, 66.76066041817639) scale(0.658158347936922)"><path d="M5.9 9.48 q2.58 0 3.96 1.66 l-1.38 1.2 q-0.8 -1.26 -2.58 -1.3 q-1.34 0 -2.18 0.64 t-0.84 1.74 q0 0.96 0.64 1.52 t2.4 1.1 q2.28 0.66 3.23 1.61 t0.95 2.57 q0 1.88 -1.4 3 t-3.58 1.14 q-1.46 0 -2.6 -0.52 t-1.76 -1.44 l1.44 -1.18 q0.46 0.76 1.28 1.17 t1.74 0.41 q1.26 0 2.17 -0.71 t0.91 -1.75 q0 -0.94 -0.53 -1.48 t-1.75 -0.92 l-1.62 -0.54 q-1.82 -0.62 -2.57 -1.55 t-0.75 -2.29 q0 -1.8 1.34 -2.93 t3.48 -1.15 z M32.31755779532274 9.84 l0 1.56 l-7.22 0 l0 4.44 l6.74 0 l0 1.56 l-6.74 0 l0 5.04 l7.58 0 l0 1.56 l-9.26 0 l0 -14.16 l8.9 0 z M54.71511559064547 9.84 l0 1.56 l-7.22 0 l0 4.44 l6.74 0 l0 1.56 l-6.74 0 l0 5.04 l7.58 0 l0 1.56 l-9.26 0 l0 -14.16 l8.9 0 z  M90.49023118129094 9.84 l6.02 14.16 l-1.96 0 l-1.44 -3.48 l-7.08 0 l-1.46 3.48 l-1.9 0 l6.24 -14.16 l1.58 0 z M89.63023118129094 12 l-2.94 6.96 l5.78 0 l-2.8 -6.96 l-0.04 0 z M110.60778897661368 9.84 l0 12.6 l6.48 0 l0 1.56 l-8.16 0 l0 -14.16 l1.68 0 z M131.1453467719364 9.84 l0 12.6 l6.48 0 l0 1.56 l-8.16 0 l0 -14.16 l1.68 0 z M152.22290456725912 22.92 q0 0.48 -0.36 0.84 t-0.84 0.36 q-0.46 0 -0.83 -0.36 t-0.37 -0.84 t0.35 -0.84 t0.85 -0.36 t0.85 0.35 t0.35 0.85 z  M183.8780201579046 9.84 l0 6.12 l0.24 0 l6.44 -6.12 l2.42 0 l-7 6.46 l7.34 7.7 l-2.46 0 l-6.74 -7.2 l-0.24 0 l0 7.2 l-1.68 0 l0 -14.16 l1.68 0 z M207.4555779532273 9.84 l8.2 11.76 l0.04 0 l0 -11.76 l1.68 0 l0 14.16 l-2.12 0 l-8.2 -11.76 l-0.04 0 l0 11.76 l-1.68 0 l0 -14.16 l2.12 0 z M238.01313574855004 9.48 q3.2 0 5.28 2.1 t2.12 5.34 q-0.02 3.3 -2.14 5.36 t-5.26 2.08 q-3.2 0 -5.28 -2.11 t-2.12 -5.33 q0 -3.2 2.08 -5.3 t5.32 -2.14 z M232.41313574855005 16.92 q0 2.54 1.6 4.19 t4 1.69 q2.4 0 3.98 -1.68 t1.62 -4.2 q0 -2.46 -1.56 -4.15 t-4.06 -1.73 q-2.44 0.02 -3.99 1.71 t-1.59 4.17 z M258.8706935438728 9.84 l3.22 11.76 l0.04 0 l3.48 -11.76 l1.88 0 l3.46 11.76 l0.04 0 l3.28 -11.76 l1.76 0 l-4.16 14.16 l-1.82 0 l-3.5 -12 l-0.04 0 l-3.52 12 l-1.84 0 l-4.14 -14.16 l1.86 0 z  M310.7258091345183 9.84 l6.02 14.16 l-1.96 0 l-1.44 -3.48 l-7.08 0 l-1.46 3.48 l-1.9 0 l6.24 -14.16 l1.58 0 z M309.86580913451826 12 l-2.94 6.96 l5.78 0 l-2.8 -6.96 l-0.04 0 z M330.843366929841 9.84 l0 12.6 l6.48 0 l0 1.56 l-8.16 0 l0 -14.16 l1.68 0 z M351.38092472516377 9.84 l0 12.6 l6.48 0 l0 1.56 l-8.16 0 l0 -14.16 l1.68 0 z M372.45848252048654 22.92 q0 0.48 -0.36 0.84 t-0.84 0.36 q-0.46 0 -0.83 -0.36 t-0.37 -0.84 t0.35 -0.84 t0.85 -0.36 t0.85 0.35 t0.35 0.85 z"/></g><g id="SvgjsG1173" rel="mainfill" name="symbol" feature="symbol" xmlns:name="symbol_mainfill" fill="#8ca5d5" transform="translate(4.922004276331384, -6.764182319569045) scale(1.072127248154543)"><title>10</title><g data-name="Group"><path data-name="Path" d="M83.8,23.3a3,3,0,0,0-3-3H67.6a3,3,0,0,0-3,3V73.7H59.6v-33a3,3,0,0,0-3-3H43.4a3,3,0,0,0-3,3v33H35.4v-21a3,3,0,0,0-3-3H19.2a3,3,0,0,0-3,3v21H9.4v6H90.6v-6H83.8Z"/></g></g>
			</g>
		</svg>
	